<?xml version="1.0" encoding="UTF-8" standalone="no"?>
<!-- Created with Inkscape (http://www.inkscape.org/) -->

<svg
   width="24"
   height="24"
   viewBox="0 0 6.3499999 6.35"
   version="1.1"
   id="svg1"
   xml:space="preserve"
   sodipodi:docname="soundprofile_icon.svg"
   inkscape:export-filename="soundprofile.png"
   inkscape:export-xdpi="67.818855"
   inkscape:export-ydpi="67.818855"
   inkscape:version="1.3.2 (091e20e, 2023-11-25, custom)"
   xmlns:inkscape="http://www.inkscape.org/namespaces/inkscape"
   xmlns:sodipodi="http://sodipodi.sourceforge.net/DTD/sodipodi-0.dtd"
   xmlns="http://www.w3.org/2000/svg"
   xmlns:svg="http://www.w3.org/2000/svg"><sodipodi:namedview
     id="namedview1"
     pagecolor="#ffffff"
     bordercolor="#000000"
     borderopacity="0.25"
     inkscape:showpageshadow="2"
     inkscape:pageopacity="0.0"
     inkscape:pagecheckerboard="0"
     inkscape:deskcolor="#d1d1d1"
     inkscape:document-units="mm"
     inkscape:zoom="22.627418"
     inkscape:cx="8.5736693"
     inkscape:cy="11.645164"
     inkscape:window-width="1920"
     inkscape:window-height="1009"
     inkscape:window-x="-8"
     inkscape:window-y="-8"
     inkscape:window-maximized="1"
     inkscape:current-layer="layer1" /><defs
     id="defs1" /><g
     inkscape:label="Layer 1"
     inkscape:groupmode="layer"
     id="layer1"
     transform="matrix(0.12955452,0,0,0.12955452,23.869892,91.233312)"><path
       id="path1"
       d="m 306.30472,25.084099 c -10.83169,0 -21.44464,3.064866 -30.68833,8.85868 L 116.45428,133.70344 H 58.353428 c -31.899008,0 -57.8526026,25.95253 -57.8526026,57.8526 v 138.9191 c 0,31.89907 25.9525946,57.85261 57.8526026,57.85261 h 57.774352 l 30.90131,19.53456 1.3908,0.8792 c 3.09762,-8.13129 12.23496,-28.23599 20.05046,-37.08956 0.12479,-0.21121 0.21219,-0.54199 0.34917,-0.77946 -3.37643,-3.81102 -29.66811,-18.69786 -31.59857,-19.88477 -5.73569,-3.59469 -12.367,-5.50193 -19.13669,-5.50193 H 58.353428 c -8.291752,0 -15.013614,-6.72162 -15.013614,-15.01362 v -138.9164 c 0,-8.29069 6.721862,-15.01361 15.013614,-15.01361 h 60.059852 c 6.76969,0 13.4,-1.90694 19.13669,-5.50194 L 298.36617,70.240969 c 2.541,-1.592938 5.27255,-2.315183 7.93855,-2.315183 7.82169,0 15.04869,6.236178 15.04869,15.037899 v 178.050555 0.20508 36.32247 c 1.46988,0.03 2.93933,0.0858 4.4091,0.12413 1.74213,0.13059 3.47849,0.33648 5.19972,0.63411 1.35554,0.18996 2.68133,0.52527 4.02324,0.78792 1.28716,0.20155 2.58177,0.29338 3.86673,0.51268 1.20408,0.16485 2.37909,0.48296 3.57801,0.67459 1.44435,0.19158 2.86804,0.50543 4.29308,0.80411 1.41087,0.36943 2.84179,0.65617 4.28497,0.86347 1.35995,0.10595 2.67695,0.44529 3.99626,0.76903 1.42899,0.29779 2.83056,0.7664 4.17165,1.33838 1.13995,0.54185 2.28934,1.07313 3.47277,1.51377 0.65693,0.24201 1.30906,0.49641 1.959,0.75554 l -0.41554,-45.1002 V 261.01424 82.963685 c 0,-8.093752 -1.63643,-15.925874 -4.86243,-23.278657 C 356.25932,52.689245 351.89391,46.457375 346.35091,41.163561 335.49622,30.796871 321.2731,25.084099 306.30472,25.084099 Z M 353.45837,307.3314 c 0.20615,0.15842 0.40111,0.3295 0.57474,0.53967 0.64511,0.13639 1.29057,0.27693 1.93742,0.40476 0.55754,0.12266 1.11435,0.24955 1.67028,0.37776 -0.14463,-0.0683 -0.29584,-0.12227 -0.43983,-0.19158 -1.0391,-0.51892 -2.22505,-0.78301 -3.34866,-1.05505 -0.13003,-0.032 -0.26399,-0.0434 -0.39395,-0.0756 z"
       sodipodi:nodetypes="sscssssccccccssssssccssccccccccccccccccscssscccccss"
       style="fill:#8a5509;fill-opacity:1;display:inline"
       transform="matrix(0.05718164,0,0,0.05718162,-181.93023,-697.12304)" /></g><g
     inkscape:groupmode="layer"
     id="layer2"
     inkscape:label="Layer 2"
     style="display:inline"
     transform="matrix(0.03868254,0,0,0.03868253,-0.76077591,-2.9543995)"><g
       style="fill:none"
       id="g3"
       transform="matrix(8.8194444,0,0,8.8194444,7.4308992,44.884272)"
       sodipodi:insensitive="true"><path
         d="m 10.901274,11.416403 v 0.893114 m 1.353917,-2.232785 v 3.572456 m 1.353917,-2.679342 v 1.786228 m 1.353917,-3.1258992 v 4.4655702 m 1.353918,-5.8052414 v 7.1449134 m 1.353917,-4.912128 v 2.679342 m 1.353918,-1.786228 v 0.893114"
         stroke="#000000"
         stroke-width="0.673388"
         stroke-linecap="round"
         stroke-linejoin="round"
         id="path1-2"
         style="display:inline" /></g><g
       style="display:inline;fill:none"
       id="g5"
       transform="matrix(2.9791715,0,0,2.7717321,44.349887,149.55891)"><path
         fill-rule="evenodd"
         clip-rule="evenodd"
         d="m 23.783316,13.761657 c 0,5.522997 -4.477,9.999999 -10,9.999999 -5.5230001,0 -10.0000002,-4.477002 -10.0000002,-9.999999 0,-5.5230015 4.4770001,-10.0000035 10.0000002,-10.0000035 5.523,0 10,4.477002 10,10.0000035 z m -4.581,3.323997 a 1,1 0 0 0 -0.525,-1.312999 l -3.894,-1.669999 V 8.2616555 a 1.0000001,1.0000001 0 0 0 -2,0 v 6.1700005 c 0,0.600001 0.357,1.143 0.909,1.378997 l 4.197,1.800001 a 1,1 0 0 0 1.313,-0.525 z"
         fill="#000000"
         id="path9"
         style="display:inline;fill:none;fill-opacity:1;stroke:#ffffff;stroke-width:3.69744;stroke-dasharray:none;stroke-opacity:1"
         inkscape:label="path1-7-out" /><path
         fill-rule="evenodd"
         clip-rule="evenodd"
         d="m 23.783316,13.761655 c 0,5.523 -4.477,10 -10,10 -5.5230001,0 -10.0000001,-4.477 -10.0000001,-10 0,-5.5230001 4.477,-10.0000001 10.0000001,-10.0000001 5.523,0 10,4.477 10,10.0000001 z m -4.581,3.324 a 1,1 0 0 0 -0.525,-1.313 l -3.894,-1.67 V 8.2616549 a 1,1 0 0 0 -2,0 v 6.1700001 c 0,0.6 0.357,1.143 0.909,1.379 l 4.197,1.8 a 1,1 0 0 0 1.313,-0.525 z"
         fill="#000000"
         id="path1-7"
         style="fill:#8a5509;fill-opacity:1" /></g></g></svg>
